<?xml version="1.0" encoding="UTF-8" standalone="no"?>
<!-- Created with Inkscape (http://www.inkscape.org/) -->

<svg xmlns:dc="http://purl.org/dc/elements/1.1/" xmlns:cc="http://creativecommons.org/ns#" xmlns:rdf="http://www.w3.org/1999/02/22-rdf-syntax-ns#" xmlns:svg="http://www.w3.org/2000/svg" xmlns="http://www.w3.org/2000/svg" xmlns:sodipodi="http://sodipodi.sourceforge.net/DTD/sodipodi-0.dtd" xmlns:inkscape="http://www.inkscape.org/namespaces/inkscape" width="64" height="64" viewBox="0 0 16.933333 16.933333" version="1.1" id="svg8" inkscape:version="0.92.5 (2060ec1f9f, 2020-04-08)" sodipodi:docname="contentdroplets-signhere-icon.svg">
  <defs id="defs2">
    <marker inkscape:stockid="Arrow1Lstart" orient="auto" refY="0.0" refX="0.0" id="marker1178" style="overflow:visible" inkscape:isstock="true">
      <path id="path1176" d="M 0.0,0.0 L 5.0,-5.0 L -12.5,0.0 L 5.0,5.0 L 0.0,0.0 z " style="fill-rule:evenodd;stroke:black;stroke-width:1pt;stroke-opacity:1" transform="scale(0.8) translate(12.5,0)" />
    </marker>
    <marker inkscape:stockid="Arrow1Lstart" orient="auto" refY="0.0" refX="0.0" id="Arrow1Lstart" style="overflow:visible" inkscape:isstock="true">
      <path id="path900" d="M 0.0,0.0 L 5.0,-5.0 L -12.5,0.0 L 5.0,5.0 L 0.0,0.0 z " style="fill-rule:evenodd;stroke:black;stroke-width:1pt;stroke-opacity:1" transform="scale(0.8) translate(12.5,0)" />
    </marker>
  </defs>
  <sodipodi:namedview id="base" pagecolor="#ffffff" bordercolor="#666666" borderopacity="1.0" inkscape:pageopacity="0.0" inkscape:pageshadow="2" inkscape:zoom="11.313709" inkscape:cx="-2.387714" inkscape:cy="33.195628" inkscape:document-units="px" inkscape:current-layer="g4587-6-3" showgrid="false" units="px" width="64px" inkscape:pagecheckerboard="false" inkscape:snap-text-baseline="false" showguides="true" inkscape:guide-bbox="true" inkscape:window-width="1920" inkscape:window-height="1009" inkscape:window-x="0" inkscape:window-y="0" inkscape:window-maximized="1">
    <sodipodi:guide position="8.4808406,22.749442" orientation="1,0" id="guide890" inkscape:locked="false" />
    <sodipodi:guide position="1.905,8.4666665" orientation="0,1" id="guide892" inkscape:locked="false" />
    <sodipodi:guide position="3.5671502,6.1539247" orientation="1,0" id="guide894" inkscape:locked="false" />
    <sodipodi:guide position="13.446998,8.4666665" orientation="1,0" id="guide896" inkscape:locked="false" />
    <sodipodi:guide position="7.9512683,10.664054" orientation="1,0" id="guide1887" inkscape:locked="false" />
    <sodipodi:guide position="8.9989648,9.3357244" orientation="1,0" id="guide1889" inkscape:locked="false" />
    <sodipodi:guide position="10.514383,15.416106" orientation="0,1" id="guide1909" inkscape:locked="false" />
    <sodipodi:guide position="13.429966,2.245064" orientation="0,1" id="guide1911" inkscape:locked="false" />
    <sodipodi:guide position="0.92604166,14.47271" orientation="0,1" id="guide1915" inkscape:locked="false" />
    <sodipodi:guide position="8.4808406,15.416106" orientation="1,0" id="guide867" inkscape:locked="false" />
  </sodipodi:namedview>
  <metadata id="metadata5">
    <rdf:RDF>
      <cc:Work rdf:about="">
        <dc:format>image/svg+xml</dc:format>
        <dc:type rdf:resource="http://purl.org/dc/dcmitype/StillImage" />
        <dc:title />
      </cc:Work>
    </rdf:RDF>
  </metadata>
  <g inkscape:label="Ebene 1" inkscape:groupmode="layer" id="layer1" transform="translate(0,-280.06666)">
    <g id="g861">
      <g id="g945">
        <g id="g959">
          <g style="stroke-width:1.08401775;stroke:none;stroke-opacity:1" id="g4587-6-3" transform="matrix(0.92249414,0,0,0.92249414,0.95346699,22.961023)">
            <path style="fill:none;stroke:#3e5389;stroke-width:0.45890083;stroke-linecap:round;stroke-linejoin:miter;stroke-opacity:1;stroke-miterlimit:4;stroke-dasharray:none" d="m 2.118563,289.1937 c 0,0 -3.5687012,-8.83884 1.4934825,-5.90511 5.0621834,2.93372 3.2311594,3.94444 0.9902354,5.80465 -2.240924,1.86022 -0.5666872,4.01331 0.7559938,2.36658 1.3226839,-1.64672 1.1563945,-4.41664 1.7832202,-3.87068 0.6268228,0.54595 -0.8137093,3.53436 0.1958404,2.94573 1.0095494,-0.58863 3.4991607,-3.56618 2.9560127,-1.13057 -0.5431505,2.4356 0.881862,0.91484 0.881862,0.91484" id="path858" inkscape:connector-curvature="0" />
            <path inkscape:connector-curvature="0" d="m 14.986184,282.72373 a 0.22048582,0.22048582 0 0 0 -0.305686,0.0612 l -0.569473,0.85481 1.92394,1.28171 0.569572,-0.85437 a 0.22048582,0.22048582 0 0 0 -0.06127,-0.30612 z m 0.804342,2.56469 -1.923938,-1.28172 -2.247419,3.3735 0.08941,-0.0182 a 0.22048582,0.22048582 0 0 1 0.259519,0.17286 l 0.04333,0.2162 0.216224,-0.0432 a 0.22048582,0.22048582 0 0 1 0.259495,0.1729 l 0.04332,0.21617 0.216197,-0.0432 a 0.22048582,0.22048582 0 0 1 0.259505,0.17287 l 0.04333,0.2162 0.216197,-0.0432 a 0.22048582,0.22048582 0 0 1 0.259493,0.17288 l 0.01802,0.0896 z m -2.582126,3.87589 a 0.22048582,0.22048582 0 0 1 -0.02905,-0.0729 l -0.04332,-0.21618 -0.216211,0.0432 a 0.22048582,0.22048582 0 0 1 -0.259505,-0.17287 l -0.04332,-0.21617 -0.216197,0.0432 a 0.22048582,0.22048582 0 0 1 -0.259491,-0.17289 l -0.04333,-0.21619 -0.216212,0.0432 a 0.22048582,0.22048582 0 0 1 -0.259492,-0.17287 l -0.04332,-0.21619 -0.216196,0.0432 a 0.22004485,0.22004485 0 0 1 -0.07821,0.002 l -0.06192,0.0925 a 0.22048582,0.22048582 0 0 0 -0.03298,0.0822 l -0.431666,2.33515 a 0.22048582,0.22048582 0 0 0 0.337344,0.22473 l 1.988678,-1.29785 a 0.22048582,0.22048582 0 0 0 0.06328,-0.062 l 0.06149,-0.0924 z" id="path2" style="fill:#00897b;fill-opacity:1;stroke-width:0.31091037" />
          </g>
        </g>
      </g>
    </g>
  </g>
  <style id="style817" type="text/css">
	.st0{fill:#FFFFFF;}
	.st1{fill:none;}
	.st2{fill:#3E5389;}
</style>
</svg>
